# xmcd
#
# Track frame offsets:
#	150
#	17302
#	35482
#	53175
#	68461
#	79291
#	95231
#	112440
#	126115
#	141662
#	157792
#	178593
#	192824
#	207420
#	226277
#	237790
#	251968
#
# Disc length: 3557 seconds
#
# Revision: 1
# Processed by: cddbd v1.4PL0 Copyright (c) Steve Scherf et al.
# Submitted via: audiograbber 1.80
#
DISCID=f00de311
DTITLE=Various Artist - Hott Country 015
DYEAR=1900
DGENRE=
TTITLE0=Collin Raye - On The Verge
TTITLE1=Tanya Tucker - Little Things
TTITLE2=Brooks and Dunn - Why Would I Say Goodbye
TTITLE3=James Bonamy - The Swing
TTITLE4=Daryle Singletary - The Used To B's
TTITLE5=Alabama - Sad Looking Moon
TTITLE6=George Strait - One Night At A Time
TTITLE7=Sons Of The Desert - Whatever Comes First
TTITLE8=Paul Brandt - Take It From Me
TTITLE9=David Lee Murphy - Breakfast In Birmingham
TTITLE10=Jamie Warren - The Secret
TTITLE11=Joe Diffie - This Is Your Brain
TTITLE12=Little Texas - Bad For Us
TTITLE13=Stephanie Bentley - Thye Hopechest Song
TTITLE14=Sara Evans - True Lies
TTITLE15=Anita Cochran - I Could Love A Man Like That
TTITLE16=Nikki Nelson - Too Little Too Much
EXTD=
EXTT0=
EXTT1=
EXTT2=
EXTT3=
EXTT4=
EXTT5=
EXTT6=
EXTT7=
EXTT8=
EXTT9=
EXTT10=
EXTT11=
EXTT12=
EXTT13=
EXTT14=
EXTT15=
EXTT16=
PLAYORDER=
